<svg xmlns="http://www.w3.org/2000/svg" version="1.1" xmlns:xlink="http://www.w3.org/1999/xlink" xmlns:svgjs="http://svgjs.com/svgjs" width="500" height="666" preserveAspectRatio="none" viewBox="0 0 500 666"><g mask="url(&quot;#SvgjsMask1040&quot;)" fill="none"><path d="M405.66,599.502C427.529,598.725,449.949,593.097,461.613,574.582C473.995,554.927,474.862,529.117,462.32,509.564C450.581,491.262,427.389,486.579,405.66,487.348C385.504,488.062,367.025,496.76,355.548,513.345C341.97,532.967,330.366,558.194,342.363,578.821C354.324,599.385,381.885,600.347,405.66,599.502" fill="rgba(230, 0, 126, 1)" class="triangle-float3"></path><path d="M-7.942,151.393C9.765,151,25.016,140.596,34.364,125.553C44.345,109.49,49.375,89.845,40.766,73.006C31.445,54.775,12.532,42.63,-7.942,42.804C-28.147,42.976,-45.645,56.038,-55.237,73.822C-64.346,90.709,-63.617,111.122,-53.629,127.504C-44.041,143.231,-26.356,151.801,-7.942,151.393" fill="rgba(230, 0, 126, 1)" class="triangle-float2"></path><path d="M462.723,377.081C483.913,377.223,501.772,363.774,513.192,345.924C525.772,326.261,535.653,301.633,523.892,281.469C512.186,261.399,485.957,259.483,462.723,259.392C439.267,259.301,412.403,260.649,400.721,280.989C389.065,301.284,400.719,325.592,413.408,345.258C424.776,362.877,441.755,376.941,462.723,377.081" fill="rgba(230, 0, 126, 1)" class="triangle-float1"></path><path d="M39.828,363.29C58.382,363.447,75.685,354.795,85.891,339.299C97.318,321.95,102.885,300.244,93.592,281.664C83.386,261.258,62.643,247.047,39.828,247.199C17.239,247.349,-2.778,262.083,-12.714,282.37C-21.624,300.562,-15.933,321.539,-4.902,338.529C5.045,353.848,21.564,363.135,39.828,363.29" fill="rgba(230, 0, 126, 1)" class="triangle-float3"></path><path d="M457.448,363.244C470.641,362.751,483.758,357.63,490.18,346.095C496.456,334.822,493.826,321.084,487.024,310.121C480.619,299.798,469.595,293.577,457.448,293.339C444.845,293.092,432.828,298.462,425.791,308.92C417.777,320.83,412.961,336.306,420.188,348.709C427.382,361.055,443.169,363.777,457.448,363.244" fill="rgba(230, 0, 126, 1)" class="triangle-float3"></path><path d="M159.966,424.673C175.34,425.198,192.491,423.341,200.529,410.225C208.817,396.701,204.711,379.247,195.88,366.071C188.029,354.357,174.06,349.257,159.966,349.703C146.707,350.122,134.791,356.961,127.783,368.225C120.314,380.228,116.933,395.328,123.935,407.609C130.99,419.982,145.731,424.187,159.966,424.673" fill="rgba(230, 0, 126, 1)" class="triangle-float3"></path><path d="M308.323,435.662C333.755,435.985,357.088,420.489,368.624,397.822C379.243,376.958,373.058,352.651,360.686,332.776C349.117,314.192,330.202,300.215,308.323,300.954C287.485,301.657,272.54,318.277,261.746,336.116C250.422,354.831,241.349,376.512,250.619,396.324C261.193,418.923,283.374,435.345,308.323,435.662" fill="rgba(230, 0, 126, 1)" class="triangle-float1"></path><path d="M-21.196,465.749C-4.375,466.309,10.674,455.587,18.788,440.842C26.617,426.615,25.966,409.275,17.515,395.408C9.399,382.091,-5.607,375.676,-21.196,375.236C-37.724,374.77,-55.756,378.713,-63.886,393.111C-71.926,407.348,-65.107,424.231,-56.823,438.327C-48.685,452.175,-37.249,465.215,-21.196,465.749" fill="rgba(230, 0, 126, 1)" class="triangle-float1"></path><path d="M488.622,197.329C526.395,198.067,561.067,175.596,578.927,142.304C595.896,110.674,589.957,73.107,571.91,42.08C553.978,11.251,524.286,-13.144,488.622,-12.951C453.239,-12.759,424.071,12.046,406.881,42.974C390.226,72.939,388.182,108.597,404.226,138.893C421.389,171.303,451.955,196.613,488.622,197.329" fill="rgba(230, 0, 126, 1)" class="triangle-float1"></path><path d="M288.613,580.859C304.28,580.785,316.664,569.963,325.366,556.935C335.498,541.765,346.716,523.235,337.688,507.383C328.616,491.454,306.928,491.635,288.613,492.402C272.044,493.096,254.454,496.845,246.179,511.217C237.917,525.567,242.642,543.143,251.258,557.283C259.469,570.759,272.832,580.933,288.613,580.859" fill="rgba(230, 0, 126, 1)" class="triangle-float1"></path></g><defs><mask id="SvgjsMask1040"><rect width="500" height="666" fill="#ffffff"></rect></mask><style>
            @keyframes float1 {
                0%{transform: translate(0, 0)}
                50%{transform: translate(-10px, 0)}
                100%{transform: translate(0, 0)}
            }

            .triangle-float1 {
                animation: float1 5s infinite;
            }

            @keyframes float2 {
                0%{transform: translate(0, 0)}
                50%{transform: translate(-5px, -5px)}
                100%{transform: translate(0, 0)}
            }

            .triangle-float2 {
                animation: float2 4s infinite;
            }

            @keyframes float3 {
                0%{transform: translate(0, 0)}
                50%{transform: translate(0, -10px)}
                100%{transform: translate(0, 0)}
            }

            .triangle-float3 {
                animation: float3 6s infinite;
            }
        </style></defs></svg>